<?xml version="1.0" encoding="UTF-8" standalone="no"?>
<!-- Created with Inkscape (http://www.inkscape.org/) -->

<svg
   width="48.82222mm"
   height="17.8948mm"
   viewBox="0 0 48.82222 17.8948"
   version="1.1"
   id="svg5"
   inkscape:version="1.1 (c68e22c387, 2021-05-23)"
   sodipodi:docname="logo-footer.svg"
   inkscape:export-filename="C:\Users\User\Downloads\logo.png"
   inkscape:export-xdpi="96"
   inkscape:export-ydpi="96"
   xmlns:inkscape="http://www.inkscape.org/namespaces/inkscape"
   xmlns:sodipodi="http://sodipodi.sourceforge.net/DTD/sodipodi-0.dtd"
   xmlns="http://www.w3.org/2000/svg"
   xmlns:svg="http://www.w3.org/2000/svg">
  <sodipodi:namedview
     id="namedview7"
     pagecolor="#ffffff"
     bordercolor="#666666"
     borderopacity="1.0"
     inkscape:pageshadow="2"
     inkscape:pageopacity="0.0"
     inkscape:pagecheckerboard="0"
     inkscape:document-units="mm"
     showgrid="false"
     inkscape:zoom="2.8284272"
     inkscape:cx="139.12326"
     inkscape:cy="24.395183"
     inkscape:window-width="1366"
     inkscape:window-height="699"
     inkscape:window-x="0"
     inkscape:window-y="0"
     inkscape:window-maximized="1"
     inkscape:current-layer="layer1" />
  <defs
     id="defs2" />
  <g
     inkscape:label="Camada 1"
     inkscape:groupmode="layer"
     id="layer1"
     transform="translate(-74.193138,-119.2511)">
    <path
       id="path29"
       style="fill:#ffffff;fill-rule:evenodd;stroke:#ffffff;stroke-width:0.27666"
       d="m 83.140817,119.38943 a 8.8090435,8.8090435 0 0 0 -8.809349,8.80934 8.8090435,8.8090435 0 0 0 8.809349,8.8088 8.8090435,8.8090435 0 0 0 4.106127,-1.02234 l -5.245728,-13.1581 h 2.374842 l 4.725913,11.85532 a 8.8090435,8.8090435 0 0 0 2.847652,-6.48368 8.8090435,8.8090435 0 0 0 -8.808806,-8.80934 z m -1.357904,4.86802 1.236323,3.05245 -2.180316,6.37073 -2.501286,-0.0134 0.06431,-0.15075 z" />
    <path
       id="path1957-0"
       style="fill:#ffffff;stroke:#ffffff;stroke-width:0.27666px;stroke-linecap:butt;stroke-linejoin:miter;stroke-opacity:1"
       d="m 97.874472,124.85878 -2.411044,7.36606 1.582686,0.0303 0.344203,-1.38277 2.366198,0.008 0.422015,1.37249 1.47787,-0.0265 -2.454284,-7.3639 z m 0.618165,2.0771 h 0.205333 l 0.672198,2.79957 -1.754522,0.0189 z" />
    <path
       style="fill:#ffffff;stroke:#ffffff;stroke-width:0.27666px;stroke-linecap:butt;stroke-linejoin:miter;stroke-opacity:1"
       d="m 104.06095,126.64431 3.87332,0.003 -3.36939,5.60783 -1.48874,10e-4 2.58987,-4.27547 h -2.61286 z"
       id="path3063-4"
       sodipodi:nodetypes="ccccccc" />
    <path
       style="fill:#ffffff;stroke:#ffffff;stroke-width:0.27666px;stroke-linecap:butt;stroke-linejoin:miter;stroke-opacity:1"
       d="m 105.71547,131.21541 -1.11979,1.78233 h 0.64388 l 1.12804,-1.78237 z"
       id="path3871-5"
       sodipodi:nodetypes="ccccc" />
    <path
       style="fill:#ffffff;stroke:#ffffff;stroke-width:0.27666px;stroke-linecap:butt;stroke-linejoin:miter;stroke-opacity:1"
       d="m 106.82211,131.21541 -1.11979,1.78233 h 0.64387 l 1.12806,-1.78237 z"
       id="path3871-8-2"
       sodipodi:nodetypes="ccccc" />
    <path
       style="fill:#ffffff;stroke:#ffffff;stroke-width:0.27666px;stroke-linecap:butt;stroke-linejoin:miter;stroke-opacity:1"
       d="m 107.92877,131.21541 -1.11982,1.78233 h 0.6439 l 1.12804,-1.78237 z"
       id="path3871-8-8-5"
       sodipodi:nodetypes="ccccc" />
    <path
       id="path5233-0"
       style="fill:#ffffff;stroke:#ffffff;stroke-width:0.36684"
       d="m 112.61095,126.69303 a 2.7647646,2.7647646 0 0 0 -2.76497,2.765 2.7647646,2.7647646 0 0 0 2.76497,2.76502 2.7647646,2.7647646 0 0 0 2.76441,-2.76502 2.7647646,2.7647646 0 0 0 -2.76441,-2.765 z m -0.008,1.26718 a 1.4839661,1.4839661 0 0 1 1.48407,1.48406 1.4839661,1.4839661 0 0 1 -1.48407,1.48404 1.4839661,1.4839661 0 0 1 -1.48404,-1.48404 1.4839661,1.4839661 0 0 1 1.48404,-1.48406 z" />
    <path
       id="path5603-0"
       style="fill:#ffffff;stroke:#ffffff;stroke-width:0.282475px;stroke-linecap:butt;stroke-linejoin:miter;stroke-opacity:1"
       d="m 117.26828,124.8619 -0.0641,7.39177 1.47088,-0.004 0.0218,-2.94852 0.96573,-0.006 1.36004,2.9567 1.76828,0.003 -1.41741,-2.9589 -0.0473,-0.24867 a 1.6819491,2.1596192 0 0 0 1.07099,-2.01178 1.6819491,2.1596192 0 0 0 -1.68196,-2.15931 1.6819491,2.1596192 0 0 0 -0.17878,0.0134 l -0.003,-0.0191 z m 2.88717,1.3122 -0.0295,0.003 c 0.0791,-10e-4 0.17086,-5e-4 0.20828,-5e-4 v -5.1e-4 c 0.45489,2.4e-4 0.8232,0.43325 0.82317,0.96737 -2.6e-4,0.53385 -0.36851,0.96657 -0.82317,0.96679 -0.0382,8e-5 -0.12496,0.001 -0.19937,-5e-4 l 0.0101,9.9e-4 h -1.61123 l 10e-4,-1.93416 z" />
  </g>
</svg>
