<?xml version="1.0" encoding="UTF-8" standalone="no"?>
<!-- Created with Inkscape (http://www.inkscape.org/) -->

<svg
   width="57.630997mm"
   height="21.123457mm"
   viewBox="0 0 57.630997 21.123456"
   version="1.1"
   id="svg5"
   inkscape:version="1.1 (c68e22c387, 2021-05-23)"
   sodipodi:docname="logo.svg"
   inkscape:export-filename="C:\Users\User\Downloads\logo.png"
   inkscape:export-xdpi="96"
   inkscape:export-ydpi="96"
   xmlns:inkscape="http://www.inkscape.org/namespaces/inkscape"
   xmlns:sodipodi="http://sodipodi.sourceforge.net/DTD/sodipodi-0.dtd"
   xmlns="http://www.w3.org/2000/svg"
   xmlns:svg="http://www.w3.org/2000/svg">
  <sodipodi:namedview
     id="namedview7"
     pagecolor="#ffffff"
     bordercolor="#666666"
     borderopacity="1.0"
     inkscape:pageshadow="2"
     inkscape:pageopacity="0.0"
     inkscape:pagecheckerboard="0"
     inkscape:document-units="mm"
     showgrid="false"
     inkscape:zoom="2.8284272"
     inkscape:cx="155.74026"
     inkscape:cy="30.405591"
     inkscape:window-width="1366"
     inkscape:window-height="699"
     inkscape:window-x="0"
     inkscape:window-y="0"
     inkscape:window-maximized="1"
     inkscape:current-layer="layer1" />
  <defs
     id="defs2" />
  <g
     inkscape:label="Camada 1"
     inkscape:groupmode="layer"
     id="layer1"
     transform="translate(-69.788774,-117.63677)">
    <path
       id="path29"
       style="fill:#330080;fill-rule:evenodd;stroke:#330080;stroke-width:0.326576"
       d="m 80.35083,117.80006 a 10.39841,10.39841 0 0 0 -10.398768,10.39876 10.39841,10.39841 0 0 0 10.398768,10.39812 10.39841,10.39841 0 0 0 4.846975,-1.20679 l -6.192187,-15.53213 h 2.803323 l 5.578582,13.9943 a 10.39841,10.39841 0 0 0 3.361437,-7.6535 10.39841,10.39841 0 0 0 -10.39813,-10.39876 z m -1.602901,5.74632 1.459387,3.60319 -2.573701,7.52017 -2.952579,-0.0153 0.07591,-0.17795 z" />
    <path
       id="path1957-0"
       style="fill:#333333;stroke:#333333;stroke-width:0.326576px;stroke-linecap:butt;stroke-linejoin:miter;stroke-opacity:1"
       d="m 97.742797,124.2562 -2.846057,8.69509 1.868244,0.0357 0.406304,-1.63225 2.793117,0.008 0.498145,1.62012 1.74452,-0.0312 -2.89709,-8.69253 z m 0.729696,2.45187 h 0.24238 l 0.793479,3.30467 -2.071079,0.0223 z" />
    <path
       style="fill:#333333;stroke:#333333;stroke-width:0.326576px;stroke-linecap:butt;stroke-linejoin:miter;stroke-opacity:1"
       d="m 105.04548,126.3639 4.57214,0.004 -3.97731,6.61961 -1.75734,0.002 3.05715,-5.04686 h -3.08429 z"
       id="path3063-4"
       sodipodi:nodetypes="ccccccc" />
    <path
       style="fill:#333333;stroke:#333333;stroke-width:0.326576px;stroke-linecap:butt;stroke-linejoin:miter;stroke-opacity:1"
       d="m 106.99851,131.75974 -1.32184,2.10391 h 0.76005 l 1.33157,-2.10397 z"
       id="path3871-5"
       sodipodi:nodetypes="ccccc" />
    <path
       style="fill:#333333;stroke:#333333;stroke-width:0.326576px;stroke-linecap:butt;stroke-linejoin:miter;stroke-opacity:1"
       d="m 108.30481,131.75974 -1.32182,2.10391 h 0.76003 l 1.33159,-2.10397 z"
       id="path3871-8-2"
       sodipodi:nodetypes="ccccc" />
    <path
       style="fill:#333333;stroke:#333333;stroke-width:0.326576px;stroke-linecap:butt;stroke-linejoin:miter;stroke-opacity:1"
       d="m 109.61112,131.75974 -1.32184,2.10391 h 0.76006 l 1.33157,-2.10397 z"
       id="path3871-8-8-5"
       sodipodi:nodetypes="ccccc" />
    <path
       id="path5233-0"
       style="fill:#333333;stroke:#333333;stroke-width:0.433027"
       d="m 115.13811,126.42142 a 3.2635955,3.2635955 0 0 0 -3.26387,3.26387 3.2635955,3.2635955 0 0 0 3.26387,3.26389 3.2635955,3.2635955 0 0 0 3.26316,-3.26389 3.2635955,3.2635955 0 0 0 -3.26316,-3.26387 z m -0.008,1.4958 a 1.7517097,1.7517097 0 0 1 1.75182,1.7518 1.7517097,1.7517097 0 0 1 -1.75182,1.75182 1.7517097,1.7517097 0 0 1 -1.75181,-1.75182 1.7517097,1.7517097 0 0 1 1.75181,-1.7518 z" />
    <path
       id="path5603-0"
       style="fill:#333333;stroke:#333333;stroke-width:0.33344px;stroke-linecap:butt;stroke-linejoin:miter;stroke-opacity:1"
       d="m 120.63572,124.25989 -0.0756,8.72544 1.73626,-0.006 0.0257,-3.48049 1.13998,-0.007 1.60542,3.49017 2.08732,0.004 -1.67314,-3.49276 -0.0559,-0.29353 a 1.9854137,2.5492671 0 0 0 1.26423,-2.37475 1.9854137,2.5492671 0 0 0 -1.98543,-2.5489 1.9854137,2.5492671 0 0 0 -0.21103,0.016 l -0.004,-0.0226 z m 3.40809,1.54896 -0.0348,0.004 c 0.0934,-0.002 0.20169,-5.9e-4 0.24586,-6e-4 v -5.8e-4 c 0.53694,2.6e-4 0.97172,0.51141 0.97168,1.1419 -3e-4,0.63017 -0.43499,1.14096 -0.97168,1.14121 -0.045,1e-4 -0.1476,0.002 -0.23535,-5.8e-4 l 0.0125,0.001 h -1.90193 l 0.001,-2.28313 z" />
  </g>
</svg>
